# xmcd
#
# Track frame offsets: 
#        150
#        13278
#        27840
#        39240
#        52955
#        66703
#        82538
#        98185
#        113650
#        127485
#        141083
#        154608
#
# Disc length: 2235 seconds
#
# Revision: 0
# Processed by: cddbd v1.5.2PL0 Copyright (c) Steve Scherf et al.
# Submitted via: ExactAudioCopy v0.95b4
#
DISCID=9b08b90c
DTITLE=Inkspots - The fabulous Inkspots
DYEAR=1900
DGENRE=Oldies
TTITLE0=To each his own
TTITLE1=I'd climb the highest mountain
TTITLE2=The gypsy
TTITLE3=I'm making believe
TTITLE4=Up the lazy river
TTITLE5=That's my desire
TTITLE6=If I didn't care
TTITLE7=We three
TTITLE8=You always hurt the one you love
TTITLE9=It's a sin to tell a lie
TTITLE10=Into each life some rain must fall
TTITLE11=Whispering grass
EXTD=
EXTT0=
EXTT1=
EXTT2=
EXTT3=
EXTT4=
EXTT5=
EXTT6=
EXTT7=
EXTT8=
EXTT9=
EXTT10=
EXTT11=
PLAYORDER=
